<?xml version="1.0" encoding="UTF-8"?>
<svg version="1.1" xmlns="http://www.w3.org/2000/svg" width="1024" height="1024">
<path d="M0 0 C337.92 0 675.84 0 1024 0 C1024 337.92 1024 675.84 1024 1024 C686.08 1024 348.16 1024 0 1024 C0 686.08 0 348.16 0 0 Z " fill="#7050CF" transform="translate(0,0)"/>
<path d="M0 0 C6.73231023 4.25921667 12.81868108 8.98717863 15.0625 16.9375 C15.11056409 18.81199963 15.1300816 20.68739115 15.125 22.5625 C15.19468966 25.28153481 15.19468966 25.28153481 16.0625 27.9375 C18.17072689 29.66932961 18.17072689 29.66932961 20.91796875 30.875 C21.91691162 31.37596191 22.91585449 31.87692383 23.94506836 32.39306641 C24.9738208 32.90272949 26.00257324 33.41239258 27.0625 33.9375 C28.92946065 34.97342464 30.78903461 36.02278421 32.640625 37.0859375 C33.56609131 37.61227783 34.49155762 38.13861816 35.44506836 38.6809082 C36.3913208 39.2193335 37.33757324 39.75775879 38.3125 40.3125 C49.61830612 46.71915372 60.97270924 52.9327249 72.625 58.6875 C79.16061242 61.92207703 85.59448828 65.32765897 92 68.8125 C93.39496704 69.5713147 93.39496704 69.5713147 94.81811523 70.34545898 C99.29958123 72.804022 103.73481882 75.31373708 108.10546875 77.96484375 C108.88220947 78.43486816 109.6589502 78.90489258 110.45922852 79.38916016 C111.90838724 80.27418379 113.35075845 81.17045228 114.78491211 82.07958984 C118.17501016 84.3419587 118.17501016 84.3419587 122.07177734 84.6394043 C124.30458254 83.89561441 124.30458254 83.89561441 127.25 82.375 C134.05684008 79.43502439 140.85537296 80.68544226 147.703125 82.9609375 C154.77670386 85.88874332 158.92605021 90.28392392 162.13671875 97.27734375 C164.66930296 104.55451611 163.67444366 111.51132365 160.4375 118.375 C158.52805327 121.88856426 156.90348683 124.39179142 153.625 126.6875 C152.779375 127.43 151.93375 128.1725 151.0625 128.9375 C151.37796551 134.74206541 152.80405064 140.11358268 154.375 145.6875 C156.55226901 153.63214801 158.29251855 161.60577587 159.8059082 169.70214844 C160.22882902 173.64271067 160.22882902 173.64271067 162.0625 176.9375 C162.10330783 178.93708364 162.10504356 180.93795254 162.0625 182.9375 C163.01125 182.81375 163.96 182.69 164.9375 182.5625 C170.5076983 182.58509715 174.78867049 185.61576123 179.0625 188.9375 C184.59602527 194.66782428 188.11792657 201.2269715 188.625 209.25 C188.36675291 217.43531002 184.0443883 223.31786439 178.3125 228.875 C176.15897534 230.84906427 174.63562914 231.85986141 171.71777344 232.25512695 C168.66574275 232.73414648 166.67364557 233.25809078 164.0625 234.9375 C161.6694763 239.80707143 160.80074451 244.95950531 159.8125 250.25 C159.5002926 251.74862409 159.18336838 253.24627301 158.86181641 254.74291992 C158.37865451 256.99534331 157.89887014 259.2478904 157.43606567 261.5045929 C155.90645336 268.93554787 153.83918147 276.18624125 151.61230469 283.43676758 C151.37672852 284.24782959 151.14115234 285.0588916 150.8984375 285.89453125 C150.68751465 286.58522705 150.4765918 287.27592285 150.25927734 287.98754883 C149.90033365 291.544476 151.83101898 293.65374907 154 296.3125 C159.04047901 302.7276551 160.59967593 308.879861 160.0625 316.9375 C158.57455041 323.20658175 156.47362534 329.57595169 150.98046875 333.37890625 C144.01888606 337.4311708 137.12020244 339.04689381 129.0625 337.9375 C126.355178 336.78002175 123.89917535 335.46598463 121.38671875 333.93359375 C118.41580734 332.660346 117.15916574 333.1054757 114.0625 333.9375 C112.30676061 334.71739278 110.57957188 335.56339265 108.87890625 336.45703125 C107.88101074 336.97821533 106.88311523 337.49939941 105.85498047 338.03637695 C104.78908691 338.60187256 103.72319336 339.16736816 102.625 339.75 C101.50754395 340.33676514 100.39008789 340.92353027 99.23876953 341.52807617 C91.38567806 345.66605558 83.5926271 349.90831129 75.8190918 354.19335938 C66.31916466 359.40159677 56.67613401 364.3306191 47.02099609 369.2434082 C40.08604012 372.78418265 33.28501416 376.47107176 26.61621094 380.49951172 C24.26049433 381.82600989 21.97129352 382.82277204 19.4375 383.75 C16.90435423 384.95923831 16.22709935 385.47466618 15.2734375 388.15625 C14.96369956 389.89918215 14.69731163 391.65032289 14.47265625 393.40625 C13.37850912 400.15870083 8.77740324 405.04497992 3.52734375 409.1328125 C-3.76056025 413.71378073 -13.85349007 413.03903548 -21.984375 411.27734375 C-27.73026035 409.26628388 -31.78584514 406.1863527 -34.9375 400.9375 C-35.8125 398 -35.8125 398 -35.9375 395.9375 C-36.5975 395.9375 -37.2575 395.9375 -37.9375 395.9375 C-37.9375 392.9675 -37.9375 389.9975 -37.9375 386.9375 C-38.74574219 386.70160156 -39.55398438 386.46570313 -40.38671875 386.22265625 C-44.74284326 384.64601713 -48.67724521 382.56735082 -52.75 380.375 C-53.58313721 379.93172363 -54.41627441 379.48844727 -55.2746582 379.03173828 C-57.8311205 377.6710367 -60.38448361 376.30465372 -62.9375 374.9375 C-65.83165817 373.39267038 -68.72753344 371.85111512 -71.625 370.3125 C-72.66998657 369.75731689 -72.66998657 369.75731689 -73.73608398 369.19091797 C-79.04202867 366.38374257 -84.39877583 363.69011359 -89.77807617 361.02685547 C-95.0413905 358.41097601 -100.243829 355.68871934 -105.4375 352.9375 C-112.70731454 349.08821226 -120.01706461 345.33783304 -127.3984375 341.70703125 C-129.61237129 340.60006436 -131.80900163 339.4569419 -133.9765625 338.26171875 C-134.85054688 337.78347656 -135.72453125 337.30523437 -136.625 336.8125 C-137.35074219 336.39742188 -138.07648438 335.98234375 -138.82421875 335.5546875 C-141.80165794 334.68512116 -143.19344577 335.59708641 -145.9375 336.9375 C-153.06111834 340.35974936 -162.9649437 340.14802026 -170.6171875 338.28515625 C-176.17094678 335.76759611 -179.7526804 331.19976488 -183.078125 326.234375 C-185.52797199 319.68660214 -185.29436653 308.67761814 -182.375 302.25 C-180.70079642 299.50818833 -178.6856795 297.90514555 -176.125 296 C-174.36440829 294.64671899 -174.36440829 294.64671899 -172.9375 292.9375 C-173.00008916 283.28833825 -176.50282083 273.64803412 -178.99633789 264.37744141 C-181.52830508 254.92704224 -183.72330274 245.66391543 -184.9375 235.9375 C-185.62303955 235.85636963 -186.3085791 235.77523926 -187.01489258 235.69165039 C-194.05399196 234.77159477 -198.40060739 232.4019351 -202.9375 226.9375 C-207.36058693 220.2698615 -209.95088316 213.36692683 -208.45703125 205.36328125 C-205.78619308 195.49150924 -200.63002019 189.85889855 -191.9375 184.765625 C-189.9375 183.9375 -189.9375 183.9375 -185.9375 183.9375 C-185.804646 182.77669922 -185.67179199 181.61589844 -185.53491211 180.41992188 C-185.01891916 176.30283058 -184.24540098 172.27811427 -183.37890625 168.21875 C-183.22969223 167.51657349 -183.08047821 166.81439697 -182.92674255 166.09094238 C-182.61314213 164.61839634 -182.29794366 163.14618979 -181.98120117 161.67431641 C-181.50135634 159.44380479 -181.02662631 157.21225188 -180.55273438 154.98046875 C-178.14899791 143.71770253 -178.14899791 143.71770253 -176.83178711 138.70507812 C-175.78353527 134.93423239 -175.78353527 134.93423239 -175.9375 130.9375 C-177.40332956 129.66711438 -178.87631277 128.40221906 -180.41015625 127.21484375 C-185.20953231 123.20104331 -186.59546399 117.12383542 -187.234375 111.171875 C-187.61829988 102.85350271 -185.94453596 96.34523956 -180.2578125 90.08984375 C-173.41236931 83.89852069 -166.37314755 81.65375926 -157.28125 81.69921875 C-154.81088353 81.95037267 -152.9173089 82.56340364 -150.625 83.5 C-146.65228867 85.08430084 -146.65228867 85.08430084 -142.9375 83.9375 C-141.37542652 83.15620329 -139.83930367 82.32204145 -138.32421875 81.453125 C-137.41744385 80.9365332 -136.51066895 80.41994141 -135.57641602 79.88769531 C-134.11546509 79.04609863 -134.11546509 79.04609863 -132.625 78.1875 C-130.54434241 76.99987459 -128.46361113 75.81237827 -126.3828125 74.625 C-125.31579102 74.01398438 -124.24876953 73.40296875 -123.14941406 72.7734375 C-118.11006694 69.89293504 -113.05489591 67.04059868 -108 64.1875 C-106.08981491 63.10812396 -104.17965798 62.02869808 -102.26953125 60.94921875 C-100.49221855 59.94525753 -98.71487647 58.94134832 -96.9375 57.9375 C-96.15165527 57.4935791 -95.36581055 57.0496582 -94.55615234 56.59228516 C-81.83246108 49.40789506 -81.83246108 49.40789506 -75.625 46.0625 C-72.22434664 44.22389374 -68.86782304 42.32282018 -65.53125 40.37109375 C-64.73235352 39.90429199 -63.93345703 39.43749023 -63.11035156 38.95654297 C-61.45618597 37.98711744 -59.80447433 37.0134922 -58.15527344 36.03564453 C-54.3966946 33.83153966 -50.68941468 31.75402579 -46.671875 30.05859375 C-40.01442285 27.56665157 -40.01442285 27.56665157 -35.77734375 22.27734375 C-35.26719437 19.39315122 -35.26719437 19.39315122 -35.13671875 16.51953125 C-34.68528823 10.66863763 -30.03279586 6.72564867 -25.9375 2.9375 C-19.43092482 -2.42085603 -7.90360077 -3.00299983 0 0 Z " fill="#7254D1" transform="translate(522.9375,122.0625)"/>
<path d="M0 0 C6.73231023 4.25921667 12.81868108 8.98717863 15.0625 16.9375 C15.11056409 18.81199963 15.1300816 20.68739115 15.125 22.5625 C15.19468966 25.28153481 15.19468966 25.28153481 16.0625 27.9375 C18.17072689 29.66932961 18.17072689 29.66932961 20.91796875 30.875 C21.91691162 31.37596191 22.91585449 31.87692383 23.94506836 32.39306641 C24.9738208 32.90272949 26.00257324 33.41239258 27.0625 33.9375 C28.92946065 34.97342464 30.78903461 36.02278421 32.640625 37.0859375 C33.56609131 37.61227783 34.49155762 38.13861816 35.44506836 38.6809082 C36.3913208 39.2193335 37.33757324 39.75775879 38.3125 40.3125 C49.61830612 46.71915372 60.97270924 52.9327249 72.625 58.6875 C79.16061242 61.92207703 85.59448828 65.32765897 92 68.8125 C93.39496704 69.5713147 93.39496704 69.5713147 94.81811523 70.34545898 C99.29958123 72.804022 103.73481882 75.31373708 108.10546875 77.96484375 C108.88220947 78.43486816 109.6589502 78.90489258 110.45922852 79.38916016 C111.90838724 80.27418379 113.35075845 81.17045228 114.78491211 82.07958984 C118.17501016 84.3419587 118.17501016 84.3419587 122.07177734 84.6394043 C124.30458254 83.89561441 124.30458254 83.89561441 127.25 82.375 C134.05684008 79.43502439 140.85537296 80.68544226 147.703125 82.9609375 C154.77670386 85.88874332 158.92605021 90.28392392 162.13671875 97.27734375 C164.66930296 104.55451611 163.67444366 111.51132365 160.4375 118.375 C158.52805327 121.88856426 156.90348683 124.39179142 153.625 126.6875 C152.779375 127.43 151.93375 128.1725 151.0625 128.9375 C151.37796551 134.74206541 152.80405064 140.11358268 154.375 145.6875 C156.55226901 153.63214801 158.29251855 161.60577587 159.8059082 169.70214844 C160.22882902 173.64271067 160.22882902 173.64271067 162.0625 176.9375 C162.10330783 178.93708364 162.10504356 180.93795254 162.0625 182.9375 C163.01125 182.81375 163.96 182.69 164.9375 182.5625 C170.5076983 182.58509715 174.78867049 185.61576123 179.0625 188.9375 C184.59602527 194.66782428 188.11792657 201.2269715 188.625 209.25 C188.36675291 217.43531002 184.0443883 223.31786439 178.3125 228.875 C176.15897534 230.84906427 174.63562914 231.85986141 171.71777344 232.25512695 C168.66574275 232.73414648 166.67364557 233.25809078 164.0625 234.9375 C161.6694763 239.80707143 160.80074451 244.95950531 159.8125 250.25 C159.5002926 251.74862409 159.18336838 253.24627301 158.86181641 254.74291992 C158.37865451 256.99534331 157.89887014 259.2478904 157.43606567 261.5045929 C155.90645336 268.93554787 153.83918147 276.18624125 151.61230469 283.43676758 C151.37672852 284.24782959 151.14115234 285.0588916 150.8984375 285.89453125 C150.68751465 286.58522705 150.4765918 287.27592285 150.25927734 287.98754883 C149.90033365 291.544476 151.83101898 293.65374907 154 296.3125 C159.04047901 302.7276551 160.59967593 308.879861 160.0625 316.9375 C158.57455041 323.20658175 156.47362534 329.57595169 150.98046875 333.37890625 C144.01888606 337.4311708 137.12020244 339.04689381 129.0625 337.9375 C126.355178 336.78002175 123.89917535 335.46598463 121.38671875 333.93359375 C118.41580734 332.660346 117.15916574 333.1054757 114.0625 333.9375 C112.30676061 334.71739278 110.57957188 335.56339265 108.87890625 336.45703125 C107.88101074 336.97821533 106.88311523 337.49939941 105.85498047 338.03637695 C104.78908691 338.60187256 103.72319336 339.16736816 102.625 339.75 C101.50754395 340.33676514 100.39008789 340.92353027 99.23876953 341.52807617 C91.38567806 345.66605558 83.5926271 349.90831129 75.8190918 354.19335938 C66.31916466 359.40159677 56.67613401 364.3306191 47.02099609 369.2434082 C40.08604012 372.78418265 33.28501416 376.47107176 26.61621094 380.49951172 C24.26049433 381.82600989 21.97129352 382.82277204 19.4375 383.75 C16.90435423 384.95923831 16.22709935 385.47466618 15.2734375 388.15625 C14.96369956 389.89918215 14.69731163 391.65032289 14.47265625 393.40625 C13.37850912 400.15870083 8.77740324 405.04497992 3.52734375 409.1328125 C-3.76056025 413.71378073 -13.85349007 413.03903548 -21.984375 411.27734375 C-27.73026035 409.26628388 -31.78584514 406.1863527 -34.9375 400.9375 C-35.8125 398 -35.8125 398 -35.9375 395.9375 C-36.5975 395.9375 -37.2575 395.9375 -37.9375 395.9375 C-37.9375 392.9675 -37.9375 389.9975 -37.9375 386.9375 C-38.74574219 386.70160156 -39.55398438 386.46570313 -40.38671875 386.22265625 C-44.74284326 384.64601713 -48.67724521 382.56735082 -52.75 380.375 C-53.58313721 379.93172363 -54.41627441 379.48844727 -55.2746582 379.03173828 C-57.8311205 377.6710367 -60.38448361 376.30465372 -62.9375 374.9375 C-65.83165817 373.39267038 -68.72753344 371.85111512 -71.625 370.3125 C-72.66998657 369.75731689 -72.66998657 369.75731689 -73.73608398 369.19091797 C-79.04202867 366.38374257 -84.39877583 363.69011359 -89.77807617 361.02685547 C-95.0413905 358.41097601 -100.243829 355.68871934 -105.4375 352.9375 C-112.70731454 349.08821226 -120.01706461 345.33783304 -127.3984375 341.70703125 C-129.61237129 340.60006436 -131.80900163 339.4569419 -133.9765625 338.26171875 C-134.85054688 337.78347656 -135.72453125 337.30523437 -136.625 336.8125 C-137.35074219 336.39742188 -138.07648438 335.98234375 -138.82421875 335.5546875 C-141.80165794 334.68512116 -143.19344577 335.59708641 -145.9375 336.9375 C-153.06111834 340.35974936 -162.9649437 340.14802026 -170.6171875 338.28515625 C-176.17094678 335.76759611 -179.7526804 331.19976488 -183.078125 326.234375 C-185.52797199 319.68660214 -185.29436653 308.67761814 -182.375 302.25 C-180.70079642 299.50818833 -178.6856795 297.90514555 -176.125 296 C-174.36440829 294.64671899 -174.36440829 294.64671899 -172.9375 292.9375 C-173.00008916 283.28833825 -176.50282083 273.64803412 -178.99633789 264.37744141 C-181.52830508 254.92704224 -183.72330274 245.66391543 -184.9375 235.9375 C-185.62303955 235.85636963 -186.3085791 235.77523926 -187.01489258 235.69165039 C-194.05399196 234.77159477 -198.40060739 232.4019351 -202.9375 226.9375 C-207.36058693 220.2698615 -209.95088316 213.36692683 -208.45703125 205.36328125 C-205.78619308 195.49150924 -200.63002019 189.85889855 -191.9375 184.765625 C-189.9375 183.9375 -189.9375 183.9375 -185.9375 183.9375 C-185.804646 182.77669922 -185.67179199 181.61589844 -185.53491211 180.41992188 C-185.01891916 176.30283058 -184.24540098 172.27811427 -183.37890625 168.21875 C-183.22969223 167.51657349 -183.08047821 166.81439697 -182.92674255 166.09094238 C-182.61314213 164.61839634 -182.29794366 163.14618979 -181.98120117 161.67431641 C-181.50135634 159.44380479 -181.02662631 157.21225188 -180.55273438 154.98046875 C-178.14899791 143.71770253 -178.14899791 143.71770253 -176.83178711 138.70507812 C-175.78353527 134.93423239 -175.78353527 134.93423239 -175.9375 130.9375 C-177.40332956 129.66711438 -178.87631277 128.40221906 -180.41015625 127.21484375 C-185.20953231 123.20104331 -186.59546399 117.12383542 -187.234375 111.171875 C-187.61829988 102.85350271 -185.94453596 96.34523956 -180.2578125 90.08984375 C-173.41236931 83.89852069 -166.37314755 81.65375926 -157.28125 81.69921875 C-154.81088353 81.95037267 -152.9173089 82.56340364 -150.625 83.5 C-146.65228867 85.08430084 -146.65228867 85.08430084 -142.9375 83.9375 C-141.37542652 83.15620329 -139.83930367 82.32204145 -138.32421875 81.453125 C-137.41744385 80.9365332 -136.51066895 80.41994141 -135.57641602 79.88769531 C-134.11546509 79.04609863 -134.11546509 79.04609863 -132.625 78.1875 C-130.54434241 76.99987459 -128.46361113 75.81237827 -126.3828125 74.625 C-125.31579102 74.01398438 -124.24876953 73.40296875 -123.14941406 72.7734375 C-118.11006694 69.89293504 -113.05489591 67.04059868 -108 64.1875 C-106.08981491 63.10812396 -104.17965798 62.02869808 -102.26953125 60.94921875 C-100.49221855 59.94525753 -98.71487647 58.94134832 -96.9375 57.9375 C-96.15165527 57.4935791 -95.36581055 57.0496582 -94.55615234 56.59228516 C-81.83246108 49.40789506 -81.83246108 49.40789506 -75.625 46.0625 C-72.22434664 44.22389374 -68.86782304 42.32282018 -65.53125 40.37109375 C-64.73235352 39.90429199 -63.93345703 39.43749023 -63.11035156 38.95654297 C-61.45618597 37.98711744 -59.80447433 37.0134922 -58.15527344 36.03564453 C-54.3966946 33.83153966 -50.68941468 31.75402579 -46.671875 30.05859375 C-40.01442285 27.56665157 -40.01442285 27.56665157 -35.77734375 22.27734375 C-35.26719437 19.39315122 -35.26719437 19.39315122 -35.13671875 16.51953125 C-34.68528823 10.66863763 -30.03279586 6.72564867 -25.9375 2.9375 C-19.43092482 -2.42085603 -7.90360077 -3.00299983 0 0 Z M-36.20703125 42.140625 C-37.52392944 42.85992187 -37.52392944 42.85992187 -38.86743164 43.59375 C-39.8186792 44.1196875 -40.76992676 44.645625 -41.75 45.1875 C-42.73540771 45.72890625 -43.72081543 46.2703125 -44.73608398 46.828125 C-53.98845669 51.92921778 -63.16335931 57.16234563 -72.31982422 62.43310547 C-75.84606913 64.45966033 -79.37926698 66.47392953 -82.91235352 68.48852539 C-92.0243471 73.68542565 -101.11484205 78.91834874 -110.1875 84.18359375 C-113.55902692 86.14018247 -116.93460144 88.0895886 -120.3125 90.03515625 C-121.19083496 90.54167725 -122.06916992 91.04819824 -122.97412109 91.57006836 C-124.66906175 92.54735304 -126.364675 93.52347236 -128.06103516 94.49829102 C-128.81690918 94.93455811 -129.5727832 95.3708252 -130.3515625 95.8203125 C-131.0213916 96.20590332 -131.6912207 96.59149414 -132.38134766 96.98876953 C-133.92395997 97.84540494 -133.92395997 97.84540494 -134.9375 98.9375 C-135.01358885 100.81224465 -135.08434057 102.68739023 -135.12524414 104.56323242 C-135.36725874 113.55004126 -136.18673603 120.99670547 -142.6953125 127.765625 C-146.30650332 130.77738739 -149.41174605 132.13063925 -154.00390625 133.04296875 C-157.64249759 134.0729995 -157.64249759 134.0729995 -160.21166992 136.67651367 C-161.10486099 139.0409068 -161.67484244 141.33727466 -162.1875 143.8125 C-162.40873535 144.71202393 -162.6299707 145.61154785 -162.85791016 146.53833008 C-163.60549099 149.66145771 -164.27515345 152.7952153 -164.9375 155.9375 C-165.35774175 157.86125687 -165.77798718 159.78501294 -166.19836426 161.70874023 C-169.45237333 174.2386399 -169.45237333 174.2386399 -170.9375 186.9375 C-170.050625 187.47375 -169.16375 188.01 -168.25 188.5625 C-163.38975998 191.61454646 -160.71799067 196.59602799 -158.9375 201.9375 C-158.30508708 211.5088263 -158.29047588 219.5497928 -164.4375 227.3125 C-166.9375 229.9375 -166.9375 229.9375 -169.9375 231.9375 C-169.80472656 232.48277344 -169.67195313 233.02804687 -169.53515625 233.58984375 C-168.62993221 237.45521645 -167.85239615 241.23038486 -167.5 245.1875 C-166.96294642 250.4506251 -165.74776879 255.4932138 -164.49560547 260.62695312 C-163.79824816 263.5140002 -163.12037646 266.40544935 -162.44140625 269.296875 C-161.89874423 271.59382249 -161.35577233 273.89069679 -160.8125 276.1875 C-160.54671143 277.31994141 -160.28092285 278.45238281 -160.00708008 279.61914062 C-159.62845825 281.20758789 -159.62845825 281.20758789 -159.2421875 282.828125 C-158.9016333 284.26720215 -158.9016333 284.26720215 -158.55419922 285.73535156 C-158.14344853 287.89495994 -158.14344853 287.89495994 -156.9375 288.9375 C-155.9475 288.999375 -154.9575 289.06125 -153.9375 289.125 C-146.48770094 290.11932636 -140.73338747 295.63821777 -136.12890625 301.2265625 C-132.99803971 305.72269215 -133.01895329 308.07004261 -133.5 313.5625 C-133.20857366 318.52223601 -133.20857366 318.52223601 -130.35644531 322.40332031 C-125.76061322 325.43661426 -120.71093927 327.57876854 -115.66308594 329.74316406 C-111.26768686 331.66920242 -107.02314608 333.88211153 -102.75 336.0625 C-101.0753594 336.89812319 -99.39959103 337.73149039 -97.72265625 338.5625 C-93.37313576 340.72029372 -89.02928508 342.88919267 -84.6875 345.0625 C-83.39065741 345.71100232 -82.09378269 346.35944039 -80.796875 347.0078125 C-78.18229167 348.31510417 -75.56770833 349.62239583 -72.953125 350.9296875 C-72.29046631 351.26097656 -71.62780762 351.59226562 -70.94506836 351.93359375 C-69.61241844 352.59999974 -68.27989773 353.26666418 -66.94750977 353.93359375 C-63.55527252 355.63116863 -60.16069655 357.3237699 -56.76171875 359.0078125 C-56.07505127 359.34893066 -55.38838379 359.69004883 -54.6809082 360.04150391 C-53.3248995 360.71491899 -51.96798338 361.38651038 -50.61010742 362.05615234 C-45.68451783 364.50454124 -40.94549384 367.20025658 -36.26953125 370.1015625 C-33.90676873 371.20039257 -33.90676873 371.20039257 -31.30078125 370.21484375 C-28.56893723 368.73829335 -26.33978702 366.89726046 -23.9375 364.9375 C-16.43988555 362.43829518 -5.04596341 362.1410042 2.20703125 365.3125 C4.5 367 4.5 367 6.30859375 368.72265625 C8.01635218 370.1883498 8.01635218 370.1883498 10.29345703 369.69824219 C13.50326685 368.81640764 16.16837748 367.52000054 19.12109375 365.98046875 C19.69814056 365.68143646 20.27518738 365.38240417 20.86972046 365.0743103 C22.74985881 364.09754041 24.62496672 363.11152924 26.5 362.125 C27.8073651 361.44295069 29.11490265 360.76123181 30.42260742 360.07983398 C39.20202774 355.4934302 47.91055403 350.78334377 56.58789062 346.0065918 C62.28378588 342.8792569 68.0282015 339.89492851 73.85620117 337.02270508 C80.00599282 333.98665252 86.10061294 330.8475862 92.1875 327.6875 C93.17226318 327.17960937 94.15702637 326.67171875 95.17163086 326.1484375 C97.81714921 324.77113743 100.443027 323.36358026 103.0625 321.9375 C104.04694092 321.42848145 104.04694092 321.42848145 105.05126953 320.90917969 C106.91396843 319.91872375 106.91396843 319.91872375 109.0625 317.9375 C109.85309765 314.95268745 109.85309765 314.95268745 109.6875 311.6875 C109.95764126 304.58437392 110.95789204 300.19339183 115.90625 295.00390625 C121.06179084 290.51148751 125.85685121 288.85951787 132.55859375 287.73828125 C135.16395413 287.20572917 135.16395413 287.20572917 136.1472168 285.16381836 C137.05787459 282.94875077 137.67610769 280.84861522 138.2109375 278.515625 C138.40969482 277.66258789 138.60845215 276.80955078 138.81323242 275.93066406 C139.12224487 274.57279785 139.12224487 274.57279785 139.4375 273.1875 C139.8781255 271.29148505 140.31953997 269.3956533 140.76171875 267.5 C141.08922119 266.09041016 141.08922119 266.09041016 141.42333984 264.65234375 C142.32549736 260.82041418 143.28326696 257.00355146 144.25 253.1875 C146.30375544 245.09560593 146.30375544 245.09560593 148.0625 236.9375 C148.371875 235.390625 148.371875 235.390625 148.6875 233.8125 C147.79520934 229.70796296 145.30652876 228.35596367 142.10546875 225.80078125 C137.09218512 221.22843653 135.25936795 214.84130231 134.8125 208.25 C134.95195856 200.7471297 137.46270147 194.96767757 142.46484375 189.4453125 C144.22915468 187.7802171 146.09632739 186.3558621 148.0625 184.9375 C146.36580744 175.15581033 144.30375412 165.61053751 141.63476562 156.03857422 C140.98640446 153.6581151 140.37402568 151.26988503 139.765625 148.87890625 C139.43473877 147.58690308 139.43473877 147.58690308 139.09716797 146.26879883 C138.66513457 144.5782403 138.23692713 142.88669832 137.81298828 141.1940918 C137.61431152 140.42363525 137.41563477 139.65317871 137.2109375 138.859375 C137.03739746 138.17456055 136.86385742 137.48974609 136.68505859 136.78417969 C136.05069581 134.63831238 136.05069581 134.63831238 134.0625 131.9375 C132.08246343 131.07012717 132.08246343 131.07012717 129.8125 130.5 C121.58909376 127.94336408 116.58141725 123.34560518 112.3125 115.875 C111.2147743 113.30984824 111.07231217 111.75250464 111.22265625 108.91796875 C111.39184677 105.1914392 111.25902949 102.48357829 110.0625 98.9375 C106.06440006 95.5247734 101.52981623 93.55634033 96.80322266 91.31640625 C91.9260927 88.86263554 87.29035259 85.99536846 82.6184082 83.17544556 C79.70525382 81.42019967 76.78073113 79.68418806 73.85546875 77.94921875 C73.28037567 77.60791428 72.70528259 77.2666098 72.11276245 76.91496277 C65.80969485 73.18234344 59.44231383 69.56525118 53.06933594 65.95385742 C48.52466306 63.37077033 44.04842914 60.72283345 39.625 57.9375 C33.68259345 54.25774891 27.64781576 50.75058732 21.5625 47.3125 C20.60545166 46.75433594 19.64840332 46.19617188 18.66235352 45.62109375 C17.29808228 44.86119141 17.29808228 44.86119141 15.90625 44.0859375 C15.09349609 43.62364746 14.28074219 43.16135742 13.44335938 42.68505859 C11.03442731 41.68984928 11.03442731 41.68984928 8.47070312 42.67041016 C6.4928973 43.711044 4.57871863 44.87173271 2.6875 46.0625 C-3.88539462 49.3864353 -12.54313573 49.24645957 -19.5078125 47.171875 C-23.41196914 45.30144254 -26.60208998 42.68430825 -29.9375 39.9375 C-32.56470555 39.9375 -33.90139426 40.87635902 -36.20703125 42.140625 Z " fill="#CDCAE0" transform="translate(522.9375,122.0625)"/>
<path d="M0 0 C13.86 0 27.72 0 42 0 C42.99 2.97 43.98 5.94 45 9 C45.54109871 10.57341133 46.08600761 12.14552976 46.63818359 13.71508789 C46.92212982 14.52365738 47.20607605 15.33222687 47.49862671 16.16529846 C47.79556427 17.00922653 48.09250183 17.8531546 48.3984375 18.72265625 C49.0496002 20.5800357 49.70063781 22.437459 50.3515625 24.29492188 C51.35942278 27.16898229 52.36805514 30.04276152 53.37890625 32.91577148 C56.74846262 42.49670861 60.08014512 52.06950166 63.05000305 61.78282166 C64.86687951 67.67895447 66.8478036 73.51525601 68.84765625 79.3515625 C69.36030029 80.8478846 69.36030029 80.8478846 69.88330078 82.37443542 C71.29822241 86.4980431 72.71628013 90.62056118 74.13696289 94.7421875 C77.6597698 104.97161354 81.12670143 115.15594633 83.99584961 125.58935547 C86.10246101 132.74456121 88.72037983 139.735643 91.25 146.75 C92.08125784 149.05979872 92.91116588 151.37004499 93.73724365 153.68170166 C94.24603586 155.10514691 94.75783356 156.52752241 95.27301025 157.94866943 C97 162.77527451 97 162.77527451 97 165 C85.45 165 73.9 165 62 165 C58.37 154.11 54.74 143.22 51 132 C30.54 131.67 10.08 131.34 -11 131 C-11.33 133.31 -11.66 135.62 -12 138 C-12.63524092 140.21269811 -13.32592194 142.41010823 -14.06640625 144.58984375 C-14.42935791 145.6687085 -14.79230957 146.74757324 -15.16625977 147.85913086 C-15.62701904 149.20499268 -16.08777832 150.55085449 -16.5625 151.9375 C-18.7590625 158.4034375 -18.7590625 158.4034375 -21 165 C-32.55 165 -44.1 165 -56 165 C-54.00205934 158.34019779 -51.95224965 151.74581371 -49.70703125 145.171875 C-49.39971069 144.26814651 -49.09239014 143.36441803 -48.77575684 142.43330383 C-47.79017204 139.53812518 -46.80153728 136.64400087 -45.8125 133.75 C-45.47640717 132.76434052 -45.14031433 131.77868103 -44.79403687 130.76315308 C-36.79681661 107.31653477 -36.79681661 107.31653477 -32.43481445 95.73144531 C-30.84745757 91.48780119 -29.44115185 87.22536646 -28.1328125 82.88671875 C-26.07062905 76.0896633 -23.70117115 69.42087264 -21.28390503 62.74502563 C-16.51512062 49.64165639 -16.51512062 49.64165639 -12.4375 36.3125 C-9.00277247 23.98336611 -4.35629921 12.02338582 0 0 Z " fill="#EBEBF4" transform="translate(459,245)"/>
<path d="M0 0 C11.55 0 23.1 0 35 0 C40.83353061 17.26725062 46.4051958 34.60740499 51.89892578 51.98535156 C55.49827894 63.35851672 59.1901573 74.69555567 63 86 C65.81408083 80.72896342 67.58503665 75.00524659 69.57592773 69.38745117 C70.29474678 67.36251148 71.02108917 65.34038889 71.74804688 63.31835938 C74.19236651 56.46750263 76.45787626 49.60261257 78.4609375 42.609375 C81.04803629 33.58477178 84.14471265 24.77224849 87.3125 15.9375 C89.189375 10.678125 91.06625 5.41875 93 0 C104.55 0 116.1 0 128 0 C128 39.6 128 79.2 128 120 C120.08 120 112.16 120 104 120 C103.67 92.61 103.34 65.22 103 37 C99.37 46.9 95.74 56.8 92 67 C89.63399537 73.1526509 87.2553848 79.2958479 84.82446289 85.42260742 C81.85618754 92.91971746 79.1506567 100.39980662 76.89916992 108.14501953 C75.59869892 112.27418268 73.85466408 116.09195783 72 120 C65.73 120 59.46 120 53 120 C48.49018696 107.27230543 44.15905609 94.49540396 39.91833496 81.67636108 C36.3811111 70.99779128 32.69946019 60.38644859 28.81689453 49.82739258 C28.47384277 48.8917749 28.13079102 47.95615723 27.77734375 46.9921875 C27.48077881 46.19151855 27.18421387 45.39084961 26.87866211 44.56591797 C25.7998858 41.41561539 24.91479102 38.20176858 24 35 C23.67 63.05 23.34 91.1 23 120 C15.41 120 7.82 120 0 120 C0 80.4 0 40.8 0 0 Z " fill="#ECEDF4" transform="translate(332,554)"/>
<path d="M0 0 C64.88235294 0 64.88235294 0 78.75 10.25 C87.12130935 18.66409287 89.20480622 27.625421 89.3125 39.0625 C89.35600586 40.56200195 89.35600586 40.56200195 89.40039062 42.09179688 C89.49491586 53.28213032 86.06350778 60.77325496 78.359375 68.8046875 C69.37996955 77.1596972 58.39547698 80.15319026 46.2890625 80.09765625 C45.16709473 80.09515869 44.04512695 80.09266113 42.88916016 80.09008789 C40.77840088 80.07643188 40.77840088 80.07643188 38.625 80.0625 C31.880625 80.0315625 31.880625 80.0315625 25 80 C25 93.2 25 106.4 25 120 C16.75 120 8.5 120 0 120 C0 80.4 0 40.8 0 0 Z " fill="#ECECF4" transform="translate(613,554)"/>
<path d="M0 0 C6.85425127 5.58686141 12.97942929 13.52988353 14.7578125 22.375 C14.7578125 25.015 14.7578125 27.655 14.7578125 30.375 C6.5078125 30.375 -1.7421875 30.375 -10.2421875 30.375 C-11.510625 27.8071875 -11.510625 27.8071875 -12.8046875 25.1875 C-16.32993303 18.74937553 -19.55606289 15.62899639 -26.46875 13.27734375 C-33.87684862 11.50584191 -43.8154172 10.69347241 -50.8671875 14.0625 C-52.01679408 14.79613052 -53.14476752 15.56538379 -54.2421875 16.375 C-55.2734375 17.035 -56.3046875 17.695 -57.3671875 18.375 C-62.51484788 22.87391414 -65.91042988 30.74651271 -67.2421875 37.375 C-67.52164964 41.70454315 -67.51974457 46.037417 -67.5546875 50.375 C-67.59819336 52.12876953 -67.59819336 52.12876953 -67.64257812 53.91796875 C-67.72382716 65.18033562 -65.68538698 75.28081876 -57.55859375 83.52734375 C-49.64636475 89.83844715 -40.01205753 90.47311981 -30.2421875 89.375 C-22.82439083 87.68777572 -18.4659902 84.65919426 -14.2421875 78.375 C-13.2521875 75.405 -12.2621875 72.435 -11.2421875 69.375 C-2.6621875 69.375 5.9178125 69.375 14.7578125 69.375 C14.7578125 81.04475701 10.56243996 89.72116437 2.7578125 98.375 C-9.18269066 108.86996961 -24.83182361 114.07342749 -40.59765625 113.65625 C-58.12145555 112.30393108 -71.22009381 106.47639608 -83.01953125 93.40625 C-94.94837217 78.59384702 -96.78749438 58.71823003 -95.2421875 40.375 C-93.06656581 22.90838388 -84.61865406 9.01153638 -71.25 -2.3125 C-50.11861173 -16.82332456 -20.18247985 -14.62702372 0 0 Z " fill="#EBECF4" transform="translate(576.2421875,563.625)"/>
<path d="M0 0 C9.9 0 19.8 0 30 0 C30 54.45 30 108.9 30 165 C20.1 165 10.2 165 0 165 C0 110.55 0 56.1 0 0 Z " fill="#ECEDF4" transform="translate(576,245)"/>
<path d="M0 0 C5.94 0 11.88 0 18 0 C21.59393024 3.68158708 22.92949297 5.57883276 25 10 C26.19468097 11.92494702 27.41153062 13.83628517 28.6484375 15.734375 C29.89322507 17.73797031 31.13534947 19.74322228 32.375 21.75 C37.98020959 30.80301775 37.98020959 30.80301775 43.72875977 39.76513672 C48.48332709 47.08088988 52.63545195 54.3620409 57 62 C57.33 41.54 57.66 21.08 58 0 C63.94 0 69.88 0 76 0 C76 30.03 76 60.06 76 91 C69.4 91 62.8 91 56 91 C49.22932969 82.69371374 49.22932969 82.69371374 47.4296875 78.83984375 C45.13813653 74.17775485 42.45065885 69.93528092 39.5625 65.625 C38.65571893 64.23120138 37.75211697 62.83532979 36.8515625 61.4375 C36.39297852 60.7259375 35.93439453 60.014375 35.46191406 59.28125 C32.24176761 54.25635882 29.06166914 49.20601827 25.88305664 44.15478516 C25.40473389 43.39472168 24.92641113 42.6346582 24.43359375 41.8515625 C24.01134521 41.17947754 23.58909668 40.50739258 23.15405273 39.81494141 C22.12454279 38.19586441 21.06428756 36.59643134 20 35 C19.67 53.48 19.34 71.96 19 91 C12.73 91 6.46 91 0 91 C0 60.97 0 30.94 0 0 Z " fill="#E9E9F3" transform="translate(565,708)"/>
<path d="M0 0 C4.91478065 4.13781165 8.89958477 9.23402319 10 15.6875 C10 17.9975 10 20.3075 10 22.6875 C4.06 22.6875 -1.88 22.6875 -8 22.6875 C-8.99 20.3775 -9.98 18.0675 -11 15.6875 C-14.37362558 11.66091463 -17.1692803 9.86702325 -22.42578125 9.3515625 C-33.5852132 9.23799955 -33.5852132 9.23799955 -42.671875 15.30078125 C-48.97533601 22.06949772 -49.32130539 28.70588434 -49.25 37.625 C-49.25773437 38.58857422 -49.26546875 39.55214844 -49.2734375 40.54492188 C-49.25203252 48.3737951 -48.14614925 54.87596909 -44 61.6875 C-37.35654881 68.18331894 -31.3186985 69.01992412 -22.4375 68.9375 C-21.60025391 68.94523438 -20.76300781 68.95296875 -19.90039062 68.9609375 C-19.08634766 68.95835937 -18.27230469 68.95578125 -17.43359375 68.953125 C-16.70197021 68.95086914 -15.97034668 68.94861328 -15.21655273 68.94628906 C-12.4538607 68.72155112 -12.4538607 68.72155112 -8 66.6875 C-7.67 61.4075 -7.34 56.1275 -7 50.6875 C-13.27 50.6875 -19.54 50.6875 -26 50.6875 C-26 46.0675 -26 41.4475 -26 36.6875 C-13.79 36.6875 -1.58 36.6875 11 36.6875 C11.2072391 41.99384449 11.38604556 47.28608535 11.49438477 52.59326172 C11.53953797 54.39582952 11.60088058 56.19806956 11.67895508 57.99951172 C12.30990489 72.93611442 12.30990489 72.93611442 9.15209961 77.15820312 C6.80439219 78.7633559 4.68445586 79.76973251 2 80.6875 C0.51306641 81.37585938 0.51306641 81.37585938 -1.00390625 82.078125 C-3.66286076 82.97120896 -6.32219457 83.85244223 -9 84.6875 C-10.2375 85.1 -11.475 85.5125 -12.75 85.9375 C-25.05383739 88.69396051 -39.16150792 87.04543164 -50.17578125 80.921875 C-61.40663148 73.2016153 -67.12433598 62.98744608 -70 49.6875 C-71.11551773 34.02525607 -70.22845027 18.75632455 -59.88671875 6.1015625 C-43.62667957 -10.80438497 -19.39609647 -13.93195726 0 0 Z " fill="#EAEAF3" transform="translate(458,714.3125)"/>
<path d="M0 0 C8.25 0 16.5 0 25 0 C27.36266203 6.49732059 29.50975325 12.47940099 31.19140625 19.1015625 C33.12347076 26.02712706 35.6095996 32.80114154 37.9609375 39.59375 C38.52104129 41.21867833 39.08093005 42.8436808 39.640625 44.46875 C40.50295266 46.97203075 41.36630937 49.47492669 42.23339844 51.9765625 C45.26911003 60.73944132 48.22882135 69.50965987 50.8515625 78.40625 C51.05615082 79.09988647 51.26073914 79.79352295 51.4715271 80.50817871 C52.48196906 84.00114733 53.28513583 87.42567914 54 91 C47.4 91 40.8 91 34 91 C33.01 88.091875 32.02 85.18375 31 82.1875 C30.68675781 81.27508545 30.37351562 80.3626709 30.05078125 79.42260742 C29.80714844 78.69920166 29.56351562 77.9757959 29.3125 77.23046875 C29.06113281 76.49207764 28.80976563 75.75368652 28.55078125 74.99291992 C28 73 28 73 28 70 C18.1 70.33 8.2 70.66 -2 71 C-3.98 77.6 -5.96 84.2 -8 91 C-14.6 91 -21.2 91 -28 91 C-25.33538164 78.73067415 -21.86197733 67.00915465 -17.79959106 55.13583374 C-16.11542321 50.21204444 -14.45670977 45.27969111 -12.796875 40.34765625 C-12.30574974 38.89073112 -12.30574974 38.89073112 -11.80470276 37.40437317 C-7.63738047 25.00498937 -3.81405582 12.51277962 0 0 Z " fill="#E8E9F3" transform="translate(326,708)"/>
<path d="M0 0 C20.46 0 40.92 0 62 0 C62 5.61 62 11.22 62 17 C47.81 17 33.62 17 19 17 C19 23.6 19 30.2 19 37 C29.89 37 40.78 37 52 37 C52 42.28 52 47.56 52 53 C41.11 53 30.22 53 19 53 C19 59.93 19 66.86 19 74 C33.19 74 47.38 74 62 74 C62 79.61 62 85.22 62 91 C41.54 91 21.08 91 0 91 C0 60.97 0 30.94 0 0 Z " fill="#E7E7F2" transform="translate(487,708)"/>
<path d="M0 0 C23.76 0 47.52 0 72 0 C72 5.61 72 11.22 72 17 C63.42 17 54.84 17 46 17 C46 41.42 46 65.84 46 91 C39.73 91 33.46 91 27 91 C27 66.58 27 42.16 27 17 C18.09 17 9.18 17 0 17 C0 11.39 0 5.78 0 0 Z " fill="#E9E9F3" transform="translate(653,708)"/>
<path d="M0 0 C2.97977387 3.36807301 3.9048389 6.79616293 4.9375 11.0625 C7.88221635 22.44709377 11.85614777 33.49060297 15.72241211 44.58618164 C23 65.48814589 23 65.48814589 23 70 C8.15 70 -6.7 70 -22 70 C-17.66801469 54.11605387 -12.855773 38.41971744 -7.8125 22.75 C-7.59649139 22.07714966 -7.38048279 21.40429932 -7.15792847 20.71105957 C-4.92018635 13.74881732 -2.655584 6.81628728 0 0 Z " fill="#7152D1" transform="translate(479,279)"/>
<path d="M0 0 C3.42375 -0.061875 6.8475 -0.12375 10.375 -0.1875 C11.43251465 -0.21481201 12.4900293 -0.24212402 13.57958984 -0.27026367 C20.31602606 -0.32839028 28.18827813 -0.10328404 33.65380859 4.34643555 C38.45397893 9.796901 39.45836611 15.1886562 39.31640625 22.2109375 C38.68934976 27.73832432 36.50628678 31.53233596 32.5625 35.375 C28.00786434 38.26330554 24.43762478 39.25064231 19.04296875 39.1953125 C18.04031982 39.19031738 17.0376709 39.18532227 16.00463867 39.18017578 C14.74498291 39.16196777 13.48532715 39.14375977 12.1875 39.125 C6.1546875 39.063125 6.1546875 39.063125 0 39 C0 26.13 0 13.26 0 0 Z " fill="#7051D0" transform="translate(638,574)"/>
<path d="M0 0 C26.53846154 0 26.53846154 0 32.8125 5.4375 C36.75533045 10.05624424 37.45352821 13.47995905 37.3125 19.46484375 C36.64968696 24.84191457 34.26201731 28.00090296 30 31.375 C23.78065998 34.74380918 17.9759726 34.07582579 11 34 C11 39.94 11 45.88 11 52 C7.37 52 3.74 52 0 52 C0 34.84 0 17.68 0 0 Z " fill="#D5D3E6" transform="translate(408,848)"/>
<path d="M0 0 C4.95 0 9.9 0 15 0 C15.72703125 2.21589844 15.72703125 2.21589844 16.46875 4.4765625 C17.14502502 6.52630853 17.82217522 8.57576593 18.5 10.625 C18.85513672 11.69919189 19.21027344 12.77338379 19.57617188 13.88012695 C22.3852041 22.30907492 25.37982232 30.65766273 28.56054688 38.95361328 C28.88087891 39.80810059 29.20121094 40.66258789 29.53125 41.54296875 C29.81548828 42.28571045 30.09972656 43.02845215 30.39257812 43.79370117 C31 46 31 46 31 51 C27.37 51 23.74 51 20 51 C17 43.5 17 43.5 17 39 C10.73 39 4.46 39 -2 39 C-2.66 41.97 -3.32 44.94 -4 48 C-4.33 48.99 -4.66 49.98 -5 51 C-8.63 51 -12.26 51 -16 51 C-14.74721748 45.00016154 -13.22432912 39.25569311 -11.25 33.45703125 C-10.9912207 32.6849382 -10.73244141 31.91284515 -10.46582031 31.11735535 C-9.64815005 28.6809427 -8.82421928 26.24670394 -8 23.8125 C-7.44749545 22.17006351 -6.89540874 20.5274864 -6.34375 18.88476562 C-5.12722437 15.26442331 -3.90675697 11.64543878 -2.68261719 8.02766418 C-1.78244756 5.35377648 -0.89218725 2.67656174 0 0 Z " fill="#D6D5E6" transform="translate(471,848)"/>
<path d="M0 0 C11.55 0 23.1 0 35 0 C35 2.97 35 5.94 35 9 C27.08 9 19.16 9 11 9 C11 12.96 11 16.92 11 21 C16.61 21 22.22 21 28 21 C28 23.97 28 26.94 28 30 C22.39 30 16.78 30 11 30 C11 33.96 11 37.92 11 42 C18.92 42 26.84 42 35 42 C35 44.97 35 47.94 35 51 C23.45 51 11.9 51 0 51 C0 34.17 0 17.34 0 0 Z " fill="#D3D1E6" transform="translate(582,848)"/>
<path d="M0 0 C3.73924459 3.04010012 6.15054151 6.11104004 6.875 10.9375 C6.91625 11.948125 6.9575 12.95875 7 14 C3.60048598 14.3503316 0.38500869 14.53840296 -3 14 C-5.4375 11.0625 -5.4375 11.0625 -7 8 C-11.34752939 6.55082354 -15.45679506 6.49116105 -20 7 C-23.91489842 9.08239278 -25.9315331 11.70312889 -27.4921875 15.8828125 C-29.1530172 22.8071948 -28.61209255 29.07576316 -25.265625 35.34375 C-23.01188403 38.29309004 -21.06985883 39.80866906 -17.37890625 40.46875 C-11.18032642 40.59806506 -11.18032642 40.59806506 -5.875 37.625 C-4.02382762 35.17762404 -4.02382762 35.17762404 -3 33 C0.3 33 3.6 33 7 33 C6.86267221 38.49311146 4.57258496 41.40110778 0.93359375 45.23046875 C-4.93048473 50.59698905 -10.93781278 50.5392948 -18.62109375 50.34375 C-25.00482062 49.69430727 -28.96039659 47.37741895 -33.3125 42.75 C-39.65403397 34.52501317 -39.93992141 26.11483605 -39 16 C-37.62532152 9.75666855 -35.12959792 5.05385227 -29.9765625 1.18359375 C-20.925796 -4.23613402 -9.42033927 -5.08770232 0 0 Z " fill="#D7D7E6" transform="translate(556,850)"/>
<path d="M0 0 C20.46 0 40.92 0 62 0 C62 5.28 62 10.56 62 16 C48.14 16 34.28 16 20 16 C20 15.67 20 15.34 20 15 C33.2 15 46.4 15 60 15 C60 10.71 60 6.42 60 2 C40.53 2 21.06 2 1 2 C1 30.71 1 59.42 1 89 C20.8 89 40.6 89 61 89 C61 89.66 61 90.32 61 91 C40.87 91 20.74 91 0 91 C0 60.97 0 30.94 0 0 Z " fill="#F5F8F6" transform="translate(487,708)"/>
<path d="M0 0 C0.66 0 1.32 0 2 0 C2.31453125 1.22074219 2.6290625 2.44148437 2.953125 3.69921875 C5.20612404 12.38241317 7.51930869 20.99993497 10.30078125 29.53125 C11 32 11 32 11 35 C4.07 35 -2.86 35 -10 35 C-9.0925 32.009375 -8.185 29.01875 -7.25 25.9375 C-4.65462897 17.33458759 -2.24136851 8.70178363 0 0 Z " fill="#6D4DCF" transform="translate(338,727)"/>
<path d="M0 0 C5.94 0 11.88 0 18 0 C18.33 1.32 18.66 2.64 19 4 C18.67 3.34 18.34 2.68 18 2 C12.72 2 7.44 2 2 2 C2 30.71 2 59.42 2 89 C6.95 89 11.9 89 17 89 C17 70.52 17 52.04 17 33 C17.33 33 17.66 33 18 33 C18 52.14 18 71.28 18 91 C12.06 91 6.12 91 0 91 C0 60.97 0 30.94 0 0 Z " fill="#F6F8F6" transform="translate(565,708)"/>
<path d="M0 0 C10.13528336 -0.48263254 10.13528336 -0.48263254 13.6875 1.5 C15.56591052 5.07792481 15.75312309 8.04812832 15 12 C13.6875 14.5 13.6875 14.5 11 16 C7.26593557 16.32236527 3.76274489 16.17917833 0 16 C0 10.72 0 5.44 0 0 Z " fill="#6847CD" transform="translate(419,857)"/>
<path d="M0 0 C0.33 0 0.66 0 1 0 C1 6.93 1 13.86 1 21 C12.22 21 23.44 21 35 21 C35 26.28 35 31.56 35 37 C23.78 37 12.56 37 1 37 C1 36.67 1 36.34 1 36 C11.56 36 22.12 36 33 36 C33 31.71 33 27.42 33 23 C31.6070874 23.00785522 31.6070874 23.00785522 30.18603516 23.01586914 C26.74576195 23.03289593 23.30553341 23.04544273 19.86523438 23.05493164 C18.37531834 23.05996514 16.88540726 23.06679242 15.39550781 23.07543945 C13.25584696 23.08754805 11.11625132 23.09323807 8.9765625 23.09765625 C7.68830566 23.10289307 6.40004883 23.10812988 5.07275391 23.11352539 C2 23 2 23 0 22 C0 14.74 0 7.48 0 0 Z " fill="#F6F8F6" transform="translate(504,724)"/>
<path d="M0 0 C3.50357483 2.70046312 4.08267095 6.03486667 5.1875 10.1875 C5.53167969 11.45980469 5.87585938 12.73210938 6.23046875 14.04296875 C6.48441406 15.01878906 6.73835938 15.99460937 7 17 C3.04 17 -0.92 17 -5 17 C-3.7915371 11.05064416 -2.25422333 5.63555833 0 0 Z " fill="#6746CD" transform="translate(478,861)"/>
<path d="M0 0 C0.33 0 0.66 0 1 0 C1 4.62 1 9.24 1 14 C7.27 14 13.54 14 20 14 C20 19.28 20 24.56 20 30 C18.68 30.33 17.36 30.66 16 31 C16.66 30.67 17.32 30.34 18 30 C18 25.38 18 20.76 18 16 C16.78441406 16.01160156 15.56882812 16.02320313 14.31640625 16.03515625 C12.73177236 16.04453278 11.14713682 16.05363313 9.5625 16.0625 C8.76005859 16.07087891 7.95761719 16.07925781 7.13085938 16.08789062 C5.08704779 16.0965143 3.04316098 16.0522815 1 16 C0 15 0 15 -0.09765625 11.62109375 C-0.09098369 10.22652923 -0.07902532 8.83198257 -0.0625 7.4375 C-0.05798828 6.72658203 -0.05347656 6.01566406 -0.04882812 5.28320312 C-0.03700864 3.52209987 -0.01907263 1.76103964 0 0 Z " fill="#603DCC" transform="translate(431,751)"/>
<path d="M0 0 C0.33 0.99 0.66 1.98 1 3 C0.67 3.66 0.34 4.32 0 5 C10.23 5.33 20.46 5.66 31 6 C31.33 5.34 31.66 4.68 32 4 C32 5.32 32 6.64 32 8 C20.45 8 8.9 8 -3 8 C-1 1 -1 1 0 0 Z " fill="#E0DDF4" transform="translate(406,402)"/>
<path d="M0 0 C0.33 0 0.66 0 1 0 C1 1.65 1 3.3 1 5 C7.6 5 14.2 5 21 5 C21.66 3.68 22.32 2.36 23 1 C23.33 1.99 23.66 2.98 24 4 C20.99833199 6.61289776 19.20372689 7.36930244 15.234375 7.29296875 C14.34492188 7.28330078 13.45546875 7.27363281 12.5390625 7.26367188 C11.61867188 7.23853516 10.69828125 7.21339844 9.75 7.1875 C8.81414062 7.17396484 7.87828125 7.16042969 6.9140625 7.14648438 C4.60878673 7.11119954 2.3046894 7.06190281 0 7 C-0.93423645 3.98968256 -1.04449911 3.13349732 0 0 Z " fill="#6442CC" transform="translate(297,794)"/>
<path d="M0 0 C8.25 0 16.5 0 25 0 C25 1.65 25 3.3 25 5 C24.67 4.01 24.34 3.02 24 2 C20.37435813 2.10954408 16.74978569 2.2402496 13.125 2.375 C11.57619141 2.42140625 11.57619141 2.42140625 9.99609375 2.46875 C8.51689453 2.52675781 8.51689453 2.52675781 7.0078125 2.5859375 C6.09660645 2.6173584 5.18540039 2.6487793 4.24658203 2.68115234 C1.80068814 2.79882511 1.80068814 2.79882511 0 5 C0 3.35 0 1.7 0 0 Z " fill="#EFF2F5" transform="translate(326,708)"/>
<path d="M0 0 C2 1 2 1 2.8515625 3.50390625 C3.56770833 6.3359375 4.28385417 9.16796875 5 12 C-1.27 12 -7.54 12 -14 12 C-14 11.34 -14 10.68 -14 10 C-8.39 10 -2.78 10 3 10 C2.01 7.69 1.02 5.38 0 3 C0 2.01 0 1.02 0 0 Z " fill="#F3F4F6" transform="translate(375,787)"/>
<path d="M0 0 C0.33 0.99 0.66 1.98 1 3 C6.28 3.33 11.56 3.66 17 4 C17.33 3.01 17.66 2.02 18 1 C18.33 2.65 18.66 4.3 19 6 C12.07 6 5.14 6 -2 6 C-1.34 4.02 -0.68 2.04 0 0 Z " fill="#6440CC" transform="translate(330,756)"/>
<path d="M0 0 C6.27 0 12.54 0 19 0 C18.34 1.32 17.68 2.64 17 4 C17 3.34 17 2.68 17 2 C14.56152549 2.11397544 12.12486826 2.24070974 9.6875 2.375 C8.65206055 2.42140625 8.65206055 2.42140625 7.59570312 2.46875 C3.93009211 2.68124919 2.12099208 2.91933861 -1 5 C-0.67 3.35 -0.34 1.7 0 0 Z " fill="#6745CE" transform="translate(469,887)"/>
<path d="M0 0 C0.33 0.66 0.66 1.32 1 2 C6.61 2 12.22 2 18 2 C18 2.66 18 3.32 18 4 C11.73 4 5.46 4 -1 4 C-0.67 2.68 -0.34 1.36 0 0 Z " fill="#F4F4F6" transform="translate(299,795)"/>
<path d="M0 0 C0.33 0.66 0.66 1.32 1 2 C1.66 2 2.32 2 3 2 C3.05416188 3.60379341 3.09286638 5.20811406 3.125 6.8125 C3.14820313 7.70582031 3.17140625 8.59914062 3.1953125 9.51953125 C3 12 3 12 1 15 C-0.09506492 11.71480525 -0.09960608 9.26336585 -0.0625 5.8125 C-0.05347656 4.72582031 -0.04445313 3.63914063 -0.03515625 2.51953125 C-0.02355469 1.68808594 -0.01195312 0.85664063 0 0 Z " fill="#BAB3D7" transform="translate(633,222)"/>
<path d="M0 0 C1.3609623 2.7219246 0.70366248 4.1831957 0.0625 7.125 C-0.13214844 8.03507813 -0.32679688 8.94515625 -0.52734375 9.8828125 C-0.68332031 10.58148437 -0.83929688 11.28015625 -1 12 C-1.66 12 -2.32 12 -3 12 C-3.2954439 6.97745369 -2.98514628 4.10457614 0 0 Z " fill="#6645CF" transform="translate(412,733)"/>
<path d="M0 0 C0.99 0.33 1.98 0.66 3 1 C2.27683594 1.61488281 2.27683594 1.61488281 1.5390625 2.2421875 C0.90742187 2.78101563 0.27578125 3.31984375 -0.375 3.875 C-1.00148438 4.40867187 -1.62796875 4.94234375 -2.2734375 5.4921875 C-3.55836651 6.61432007 -4.79371975 7.79371975 -6 9 C-5.70381606 5.44579276 -5.19662957 4.19662957 -2.625 1.625 C-1.325625 0.820625 -1.325625 0.820625 0 0 Z " fill="#633FCD" transform="translate(535,857)"/>
<path d="M0 0 C0.66 0.33 1.32 0.66 2 1 C-0.57784846 3.64752004 -2.91648098 5.94432065 -6 8 C-5.65120368 4.74456771 -4.97866739 3.98126893 -2.4375 1.75 C-1.633125 1.1725 -0.82875 0.595 0 0 Z " fill="#D2D2DC" transform="translate(349,416)"/>
<path d="M0 0 C0.2475 0.61875 0.495 1.2375 0.75 1.875 C2.20628639 4.35068687 3.37812506 4.95125002 6 6 C3.36 6 0.72 6 -2 6 C-1.34 4.02 -0.68 2.04 0 0 Z " fill="#6746CE" transform="translate(459,342)"/>
<path d="M0 0 C2.49361571 1.20381448 4.68143083 2.45428722 7 4 C7 4.66 7 5.32 7 6 C4.0625 5.25 4.0625 5.25 1 4 C0.125 1.875 0.125 1.875 0 0 Z " fill="#C5C2DD" transform="translate(433,480)"/>
</svg>
